<?xml version="1.0" encoding="utf-8"?>
<!-- Generator: Adobe Illustrator 16.0.0, SVG Export Plug-In . SVG Version: 6.00 Build 0)  -->
<!DOCTYPE svg PUBLIC "-//W3C//DTD SVG 1.1//EN" "http://www.w3.org/Graphics/SVG/1.1/DTD/svg11.dtd">
<svg version="1.1" xmlns="http://www.w3.org/2000/svg" xmlns:xlink="http://www.w3.org/1999/xlink" x="0px" y="0px"
	 width="1919.76px" height="343.957px" viewBox="0 0 1919.76 343.957" enable-background="new 0 0 1919.76 343.957"
	 xml:space="preserve">
<g id="Layer_6">
	<path fill="#22A64A" d="M0,70c0,0,471-163.757,741,64.622L860,238l617-143c0,0,154.52-63,442.76-24v272.957H0L0,70z"/>
</g>
<g id="Layer_5">
</g>
<g id="Layer_3">
</g>
<g id="Layer_1">
	<path fill="#FFFFFF" d="M1576,70c0,0,135.31-43,387.565-5c252.255,38-38.892,100-38.892,100s-130.245,31-170.838-47
		C1753.836,118,1599.196,171,1576,70z"/>
	<path fill="#FFFFFF" d="M0,67.276c0,0,219.083-138.307,609.5-12.47c0,0-58.377,68.02-145.449,12.47
		c0,0-95.977,56.683-159.301,4.534c0,0-105.336,46.036-143.47-2.267C161.28,69.543,52.44,133.028,0,67.276z"/>
	<path fill="#FFFFFF" d="M1405,80c0,0-234.64-130.387-472.655,12.307c0,0,63.389,37.821,70.897,0c0,0,48.955,51.307,109.725,0
		c0,0,41.357,38.307,75.118,0c0,0,39.669,37.307,66.678,0c0,0,47.266,44.693,74.274-6.307C1329.037,86,1358.578,135,1405,80z"/>
	<path fill="#FFFFFF" d="M616,54.806"/>
	<path fill="#FFFFFF" d="M616,54.806"/>
	<g id="Layer_5_1_">
		<path fill="#32BF5D" d="M555,218c0,0,46-116.816,386-73.908C1281,187,1684,80,1792,241S555,218,555,218z"/>
	</g>
	<g id="Layer_3_1_">
		<path fill="#60FC8F" d="M0,343.957V213c0,0,324-177,751,9c0,0,362-411,866-17c0,0,210.52-25,302.76,9v129.957H0z"/>
	</g>
	<g id="Layer_1_1_">
		<path fill="#FFFFFF" d="M1405,80c0,0-234.64-130.387-472.655,12.307c0,0,63.39,37.821,70.897,0c0,0,48.955,51.307,109.725,0
			c0,0,41.357,38.307,75.118,0c0,0,39.669,37.307,66.678,0c0,0,47.267,44.693,74.274-6.307C1329.037,86,1358.578,135,1405,80z"/>
		<path fill="#FFFFFF" d="M616,54.806"/>
		<path fill="#FFFFFF" d="M616,54.806"/>
	</g>
</g>
</svg>
