<?xml version="1.0" encoding="utf-8"?>
<!-- Generator: Adobe Illustrator 16.0.0, SVG Export Plug-In . SVG Version: 6.00 Build 0)  -->
<!DOCTYPE svg PUBLIC "-//W3C//DTD SVG 1.1//EN" "http://www.w3.org/Graphics/SVG/1.1/DTD/svg11.dtd">
<svg version="1.1" xmlns="http://www.w3.org/2000/svg" xmlns:xlink="http://www.w3.org/1999/xlink" x="0px" y="0px"
	 width="1919.76px" height="343.957px" viewBox="0 0 1919.76 343.957" enable-background="new 0 0 1919.76 343.957"
	 xml:space="preserve">
<g id="Layer_6">
	<path fill="#22A64A" d="M0,70c0,0,471-163.757,741,64.622L860,238l617-143c0,0,154.52-63,442.76-24v272.957H0L0,70z"/>
</g>
<g id="Layer_5">
</g>
<g id="Layer_3">
</g>
<g id="Layer_1">
	<path fill="#FFFFFF" d="M1576,70c0,0,135.31-43,387.565-5c252.255,38-38.892,100-38.892,100s-130.245,31-170.838-47
		C1753.836,118,1599.196,171,1576,70z"/>
	<path fill="#FFFFFF" d="M0,67.276c0,0,219.083-138.307,609.5-12.47c0,0-58.377,68.02-145.449,12.47
		c0,0-95.977,56.683-159.301,4.534c0,0-105.336,46.036-143.47-2.267C161.28,69.543,52.44,133.028,0,67.276z"/>
	<path fill="#FFFFFF" d="M616,54.806"/>
	<path fill="#FFFFFF" d="M616,54.806"/>
</g>
</svg>
