<?xml version="1.0" encoding="utf-8"?>
<!-- Generator: Adobe Illustrator 16.0.0, SVG Export Plug-In . SVG Version: 6.00 Build 0)  -->
<!DOCTYPE svg PUBLIC "-//W3C//DTD SVG 1.1//EN" "http://www.w3.org/Graphics/SVG/1.1/DTD/svg11.dtd">
<svg version="1.1" id="Layer_1" xmlns="http://www.w3.org/2000/svg" xmlns:xlink="http://www.w3.org/1999/xlink" x="0px" y="0px"
	 width="58.8px" height="81.601px" viewBox="0 0 58.8 81.601" enable-background="new 0 0 58.8 81.601" xml:space="preserve">
<polygon fill="#E5B582" points="-0.033,-0.097 27.842,81.504 28.749,79.111 58.767,-0.097 "/>
<rect x="28.563" y="70.625" fill="#DBA468" width="2.125" height="2.375"/>
<polygon fill="#DBA468" points="26.75,73 26.75,70.625 24.125,70.625 24.937,73 "/>
<polygon fill="#DBA468" points="31.5,68.5 32.063,65.313 28.563,65.313 28.563,68.5 "/>
<polygon fill="#DBA468" points="26.75,68.5 26.75,65.313 23.438,65.313 23.875,68.5 "/>
<polygon fill="#DBA468" points="23.063,63.188 22.25,59.188 26.646,59.313 26.646,63.188 "/>
<polygon fill="#DBA468" points="28.563,63.021 28.563,59.354 32.604,59.354 32.063,63.021 "/>
<polygon fill="#DBA468" points="28.563,57.354 33.125,57.354 33.625,52.834 28.563,52.834 "/>
<polygon fill="#DBA468" points="26.646,57.354 26.646,52.834 21.625,52.834 22.25,57.354 "/>
<polygon fill="#DBA468" points="21.375,50.875 20.25,45.625 26.646,45.625 26.646,50.875 "/>
<polygon fill="#DBA468" points="28.563,50.875 28.563,45.625 34.688,45.625 34,50.875 "/>
<polygon fill="#DBA468" points="35.063,43.688 35.875,38.125 28.563,38.125 28.563,43.688 "/>
<polygon fill="#DBA468" points="26.646,43.688 26.646,38.125 19.25,38.125 20.25,43.688 "/>
<polygon fill="#DBA468" points="17.031,36.125 16,29.25 9.992,29.25 12.34,36.125 "/>
<polygon fill="#DBA468" points="18.206,29.25 18.844,36.125 26.646,36.125 26.75,29.25 "/>
<path fill="#DBA468" d="M28.563,29.25c0.5,0.063,8.563,0,8.563,0l-1,6.875h-7.563V29.25z"/>
<polygon fill="#DBA468" points="37.625,27.375 38.816,19 28.563,19 28.563,27.375 "/>
<path fill="#DBA468" d="M26.646,19v8.375h-8.958c0,0-1.563-8.5-1.375-8.375S26.646,19,26.646,19z"/>
<path fill="#DBA468" d="M15.183,19.246"/>
<polygon fill="#DBA468" points="39.188,17.25 40.188,9.313 28.563,9.313 28.563,17.25 "/>
<polygon fill="#DBA468" points="26.646,17.25 26.375,9.313 14.813,9.313 15.938,17.25 "/>
<polyline fill="#DBA468" points="13.938,17.25 5.893,17.25 3.181,9.313 13.023,9.313 "/>
<polyline fill="#DBA468" points="15.614,27.542 14.083,19.246 6.575,19.246 9.352,27.375 "/>
<polyline fill="#DBA468" points="18.625,43.688 14.924,43.688 13.023,38.125 17.438,38.125 "/>
<polygon fill="#DBA468" points="35.458,52.834 38.707,52.834 36.994,57.354 34.688,57.354 "/>
<polygon fill="#DBA468" points="34.208,59.354 36.236,59.354 34.846,63.021 33.417,63.021 "/>
<polygon fill="#DBA468" points="33.978,65.313 33.25,65.313 32.333,68.5 32.77,68.5 "/>
<polygon fill="#DBA468" points="30.217,75.237 28.563,75.417 28.563,79.603 "/>
<polygon fill="#DBA468" points="27.083,75.237 25.701,75.237 27.192,79.603 "/>
<polygon fill="#DBA468" points="21.625,63.305 21.018,59.354 20.275,59.354 "/>
<polygon fill="#DBA468" points="18.625,45.625 19.792,50.875 17.379,50.875 15.585,45.625 "/>
<polygon fill="#DBA468" points="20.708,57.354 19.592,57.354 18.048,52.834 20.083,52.834 "/>
<polygon fill="#DBA468" points="35.875,50.875 39.449,50.875 41.439,45.625 37.125,45.5 "/>
<polygon fill="#DBA468" points="37.542,43.688 42.173,43.688 44.281,38.125 38.125,38.125 "/>
<polygon fill="#DBA468" points="38.417,36.125 45.039,36.125 47.645,29.25 39.458,29.25 "/>
<polygon fill="#DBA468" points="39.708,27.375 48.355,27.375 51.529,19 41.188,19 "/>
<polygon fill="#DBA468" points="56.006,7.188 51.875,7.188 53.94,0 58.729,0 "/>
<polygon fill="#DBA468" points="49.417,7.188 51.529,0 42.667,0 42.25,7.188 "/>
<polygon fill="#DBA468" points="40.188,7.438 40.917,0 28.167,0 28.563,7.438 "/>
<polygon fill="#DBA468" points="26.083,7.438 26.083,0 14.417,0 14.813,7.438 "/>
<polygon fill="#DBA468" points="12.375,7.438 11.375,0 0,0 2.541,7.438 "/>
<polygon fill="#DBA468" points="41.292,17.25 52.192,17.25 55.2,9.313 42.542,9.313 "/>
</svg>
