<?xml version="1.0" encoding="utf-8"?>
<!-- Generator: Adobe Illustrator 16.0.0, SVG Export Plug-In . SVG Version: 6.00 Build 0)  -->
<!DOCTYPE svg PUBLIC "-//W3C//DTD SVG 1.1//EN" "http://www.w3.org/Graphics/SVG/1.1/DTD/svg11.dtd">
<svg version="1.1" id="Layer_1" xmlns="http://www.w3.org/2000/svg" xmlns:xlink="http://www.w3.org/1999/xlink" x="0px" y="0px"
	 width="110.404px" height="89.83px" viewBox="0 0 110.404 89.83" enable-background="new 0 0 110.404 89.83" xml:space="preserve">
<path fill="#FEFFEB" d="M95.958,30.227"/>
<path fill="#FEFFEB" d="M97.021,27.29"/>
<path fill="#DE6800" d="M95.192,22.895c-2.306-3.892-5.283-7.368-8.539-10.495c-4.263-4.095-8.997-7.707-14.511-9.935
	c-3.477-1.404-7.202-2.296-10.956-2.43c-2.186-0.078-4.447-0.014-6.625,0.062c-7.135,0.246-14.215,1.958-20.444,5.504
	c-5.303,3.019-9.815,7.254-13.418,12.16c-6.088,8.291-9.696,18.271-11.641,28.309c-0.522,2.695-0.937,5.418-1.163,8.156
	c-0.328,3.939-2.543,7.57-4.364,11.006c-0.83,1.563-2.012,3.164-2.47,4.877c-1.021,3.816-1.705,8.197-0.136,11.961
	c0.838,2.007,2.272,3.828,4.182,4.906c0.943,0.531,2.018,0.646,2.961,1.117c3.759,0.447,9.176-1.834,10.307-2.065
	c7.077-1.445,7.39,3.013,13.952,3.075c2.063,0.125,12.824-4.137,13.848-4.168c2.008-0.063,4.2-0.449,6.165-0.002
	c3.101,0.701,11.612,4.599,14.424,4.574c1.401,0.211,8.31-1,10.207-1.738c1.026-0.399,5.268-2.158,6.473-2.302
	c2.325-0.274,4.954-0.532,7.19,0.298c4.078,1.512,8.229,4.803,12.832,3.301c1.703-0.556,3.057-1.789,4.1-3.211
	c3.221-2.022,3.304-14.106,1.916-14.293c-0.273-0.963-4.619-9.949-4.806-10.756c-0.352-1.524-0.922-3.063-1.083-4.611
	c-0.535-5.154-1.333-10.303-2.224-15.406c-0.526-3.016-1.088-6.041-1.895-8.996L95.192,22.895z"/>
<path fill="#FEFFEB" d="M51.077,90.353"/>
</svg>
