<svg xmlns="http://www.w3.org/2000/svg" xmlns:xlink="http://www.w3.org/1999/xlink" version="1.1" id="Layer_1" x="0px" y="0px" width="100px" height="100px" viewBox="0 0 100 100" enable-background="new 0 0 100 100" xml:space="preserve">
<g id="Captions" display="none">
</g>
<path d="M27.137,24.858c-0.391-1.367-0.612-2.806-0.612-4.297c0-8.67,7.053-15.724,15.722-15.724c8.67,0,15.724,7.054,15.724,15.724  c0,1.655-0.261,3.249-0.737,4.749v9.297c3.449-3.677,5.574-8.608,5.574-14.046C62.807,9.206,53.603,0,42.246,0  c-11.354,0-20.56,9.206-20.56,20.561c0,5.372,2.076,10.247,5.45,13.91V24.858z"/>
<path d="M81.914,48.365c-1.802,0-3.501,0.459-4.984,1.31c-1.902-2.23-4.716-3.625-7.819-3.625c-1.864,0-3.646,0.498-5.193,1.4  c-2.011-2.268-5.004-3.715-8.247-3.715c-1.043,0-2.077,0.151-3.068,0.435V20.585c0-5.745-4.673-10.418-10.417-10.418  S31.766,14.84,31.766,20.585v45.251l-6.162-6.379c-0.013-0.015-0.025-0.029-0.041-0.042c-1.967-1.969-4.546-3.054-7.26-3.054  c-2.715,0-5.293,1.085-7.261,3.053c-1.975,1.975-3.039,4.609-2.998,7.419c0.041,2.756,1.146,5.354,3.105,7.312L30.809,94.03  c3.365,3.403,9.511,5.97,14.297,5.97H81.54c5.745,0,10.417-4.673,10.417-10.417V58.784C91.957,52.941,87.546,48.365,81.914,48.365z   M81.54,95.37H45.105c-3.503,0-8.542-2.104-11.005-4.596L14.422,70.871c-1.104-1.104-1.725-2.562-1.747-4.108  c-0.024-1.545,0.56-2.993,1.642-4.075c1.094-1.094,2.51-1.696,3.986-1.696s2.894,0.603,3.971,1.682l12.133,12.559  c0.328,0.339,0.83,0.448,1.266,0.27c0.438-0.177,0.724-0.602,0.724-1.073V20.585c0-3.191,2.598-5.788,5.789-5.788  c3.19,0,5.787,2.597,5.787,5.788v30.323c0,0.533,0.363,0.997,0.88,1.124c0.519,0.128,1.055-0.114,1.303-0.584  c0.939-1.786,3.26-3.083,5.516-3.083c3.057,0,5.813,2.289,6.146,5.103c0.06,0.507,0.443,0.915,0.946,1.004  c0.504,0.091,1.003-0.161,1.235-0.616c0.994-1.958,2.953-3.176,5.112-3.176c2.924,0,5.3,2.146,5.648,5.103  c0.061,0.507,0.445,0.915,0.947,1.005c0.504,0.089,1.004-0.161,1.234-0.616c1.024-2.018,2.837-3.176,4.974-3.176  c3.086,0,5.414,2.488,5.414,5.789v30.799C87.328,92.773,84.732,95.37,81.54,95.37z"/>
</svg>