<?xml version="1.0" encoding="utf-8"?>
<!-- Generator: Adobe Illustrator 16.0.0, SVG Export Plug-In . SVG Version: 6.00 Build 0)  -->
<!DOCTYPE svg PUBLIC "-//W3C//DTD SVG 1.1//EN" "http://www.w3.org/Graphics/SVG/1.1/DTD/svg11.dtd">
<svg version="1.1" id="Layer_1" xmlns="http://www.w3.org/2000/svg" xmlns:xlink="http://www.w3.org/1999/xlink" x="0px" y="0px"
	 width="110.404px" height="89.83px" viewBox="0 0 110.404 89.83" enable-background="new 0 0 110.404 89.83" xml:space="preserve">
<path fill="#EFD18B" d="M77.163,45.411c-4.115,4.038-10.723,3.978-14.761-0.137l0,0c-4.038-4.114-3.977-10.722,0.137-14.759
	L87.336,6.171c4.115-4.039,10.723-3.979,14.761,0.135l0,0c4.038,4.114,3.977,10.722-0.138,14.76L77.163,45.411z"/>
<path fill="#EFD18B" d="M41.85,32.969c3.401,4.657,2.384,11.185-2.271,14.585l0,0c-4.656,3.401-11.185,2.385-14.584-2.271
	L4.496,17.225C1.095,12.569,2.111,6.04,6.766,2.639l0,0c4.655-3.401,11.185-2.384,14.585,2.271L41.85,32.969z"/>
<path fill="#FEFFEB" d="M95.958,30.227"/>
<path fill="#FEFFEB" d="M97.021,27.29"/>
<path fill="#FEFFEB" d="M51.077,90.353"/>
<path fill="#FF6600" d="M42.203,44.196c4.032,4.12,3.961,10.729-0.158,14.761l0,0c-4.12,4.031-10.729,3.961-14.76-0.16L2.979,33.964
	c-4.033-4.12-3.963-10.728,0.158-14.76l0,0c4.12-4.032,10.728-3.961,14.76,0.159L42.203,44.196z"/>
<path fill="#860C1B" d="M80.911,57.581c-4.305,3.837-10.9,3.46-14.737-0.844l0,0c-3.837-4.303-3.459-10.9,0.844-14.736
	l25.934-23.127c4.305-3.837,10.9-3.46,14.737,0.842l0,0c3.837,4.303,3.459,10.901-0.844,14.737L80.911,57.581z"/>
<path fill="#EA9C2F" d="M67.903,43.677c-3.717,4.408-10.3,4.97-14.708,1.255l0,0c-4.408-3.715-4.969-10.299-1.254-14.707
	L74.334,3.654c3.716-4.409,10.3-4.972,14.708-1.256l0,0c4.407,3.715,4.969,10.3,1.254,14.708L67.903,43.677z"/>
<path fill="#BA2313" d="M20.133,17.98C16.548,13.464,17.302,6.9,21.817,3.315l0,0C26.332-0.269,32.897,0.485,36.481,5l21.607,27.214
	c3.585,4.516,2.832,11.08-1.683,14.664l0,0c-4.516,3.584-11.081,2.83-14.665-1.684L20.133,17.98z"/>
<path fill="#84592F" d="M95.192,22.852c-2.306-3.894-5.283-7.373-8.539-10.501c-4.263-4.098-8.997-7.712-14.511-9.941
	c-3.478-1.405-7.202-2.298-10.956-2.432C59-0.101,56.739-0.037,54.561,0.04c-7.136,0.246-14.215,1.959-20.444,5.507
	c-5.303,3.021-9.815,7.259-13.418,12.167c-6.088,8.297-9.696,18.284-11.641,28.328c-0.522,2.696-0.938,5.421-1.163,8.16
	c-0.328,3.942-2.543,7.576-4.364,11.014c-0.83,1.563-2.012,3.165-2.47,4.88c-1.021,3.818-1.705,8.203-0.137,11.969
	c0.839,2.009,2.272,3.83,4.183,4.909c0.942,0.532,2.018,0.647,2.961,1.118c3.759,0.447,9.176-1.835,10.307-2.066
	c7.077-1.445,7.391,3.016,13.952,3.077c2.063,0.124,12.824-4.14,13.848-4.171c2.009-0.063,4.2-0.449,6.165-0.002
	c3.102,0.701,11.612,4.603,14.425,4.577c1.4,0.212,8.31-1.001,10.207-1.739c1.025-0.399,5.268-2.16,6.473-2.304
	c2.325-0.273,4.954-0.532,7.189,0.299c4.078,1.512,8.229,4.806,12.832,3.303c1.703-0.556,3.058-1.791,4.101-3.213
	c3.221-2.023,3.304-14.115,1.916-14.303c-0.273-0.964-4.619-9.956-4.807-10.763c-0.352-1.525-0.922-3.064-1.083-4.614
	c-0.534-5.156-1.333-10.31-2.224-15.415c-0.526-3.019-1.088-6.045-1.895-9.002L95.192,22.852z"/>
<polyline fill="#FF6600" points="43.202,32.352 67.327,32.352 55.264,47.728 "/>
<ellipse fill="#FFFFFF" cx="40.056" cy="23.665" rx="5.125" ry="5.375"/>
<ellipse fill="#FFFFFF" cx="66.702" cy="22.54" rx="5.125" ry="5.375"/>
<ellipse cx="40.306" cy="26.165" rx="3" ry="3.25"/>
<ellipse cx="66.952" cy="25.165" rx="3" ry="3.25"/>
<path fill="#A4121C" d="M43.323,32.613l-1.167,5.917c0,0,7.084,13.333-0.833,14.833S35.406,29.529,43.323,32.613z"/>
<path fill="#F2D402" d="M32.607,87.455c0,0-29.758-20.9-23.479-24.716c6.281-3.814,10.394,3.059,10.394,3.059
	s-1.2-8.666,2.628-8.024c3.828,0.641,9.035,6.376,9.035,6.376s0.807-11.921,5.948-8.949c5.142,2.973,3.436,10.533,3.436,10.533
	S37.603,88.758,32.607,87.455z"/>
<path fill="#F2D402" d="M75.866,85.431c0,0-14.181-33.486-6.832-33.397c7.348,0.089,7.197,8.097,7.197,8.097s3.57-7.987,6.478-5.416
	c2.908,2.57,4.29,10.192,4.29,10.192s6.995-9.686,9.783-4.443c2.788,5.245-2.662,10.755-2.662,10.755S79.416,89.181,75.866,85.431z"
	/>
</svg>
